<svg id="svg1008" xmlns="http://www.w3.org/2000/svg" xmlns:xlink="http://www.w3.org/1999/xlink" viewBox="0 0 285.33658 294.72914"><defs><style>.cls-1{fill:url(#linear-gradient);}.cls-2{fill:url(#radial-gradient);}.cls-3{fill:url(#radial-gradient-2);}.cls-4{fill:url(#radial-gradient-3);}.cls-5{fill:url(#radial-gradient-4);}.cls-6{fill:url(#radial-gradient-5);}.cls-7{fill:url(#radial-gradient-6);}.cls-8{fill:url(#radial-gradient-7);}.cls-9{fill:url(#radial-gradient-8);}.cls-10{fill:url(#radial-gradient-9);}.cls-11{fill:url(#linear-gradient-2);}</style><linearGradient id="linear-gradient" x1="267.30509" y1="210.46189" x2="30.17509" y2="-18.32391" gradientTransform="matrix(1, 0, 0, -1, 3.7, 256.10341)" gradientUnits="userSpaceOnUse"><stop offset="0.048" stop-color="#fff44f"/><stop offset="0.111" stop-color="#ffe847"/><stop offset="0.225" stop-color="#ffc830"/><stop offset="0.368" stop-color="#ff980e"/><stop offset="0.401" stop-color="#ff8b16"/><stop offset="0.462" stop-color="#ff672a"/><stop offset="0.534" stop-color="#ff3647"/><stop offset="0.705" stop-color="#e31587"/></linearGradient><radialGradient id="radial-gradient" cx="-7718.63303" cy="8747.39359" r="297.78819" gradientTransform="matrix(1, 0, 0, -1, 7978.7002, 8780.10359)" gradientUnits="userSpaceOnUse"><stop offset="0.129" stop-color="#ffbd4f"/><stop offset="0.186" stop-color="#ffac31"/><stop offset="0.247" stop-color="#ff9d17"/><stop offset="0.283" stop-color="#ff980e"/><stop offset="0.403" stop-color="#ff563b"/><stop offset="0.467" stop-color="#ff3750"/><stop offset="0.71" stop-color="#f5156c"/><stop offset="0.782" stop-color="#eb0878"/><stop offset="0.86" stop-color="#e50080"/></radialGradient><radialGradient id="radial-gradient-2" cx="-7827.44743" cy="8625.64888" r="297.78819" gradientTransform="matrix(1, 0, 0, -1, 7978.7002, 8780.10359)" gradientUnits="userSpaceOnUse"><stop offset="0.3" stop-color="#960e18"/><stop offset="0.351" stop-color="#b11927" stop-opacity="0.74"/><stop offset="0.435" stop-color="#db293d" stop-opacity="0.343"/><stop offset="0.497" stop-color="#f5334b" stop-opacity="0.094"/><stop offset="0.53" stop-color="#ff3750" stop-opacity="0"/></radialGradient><radialGradient id="radial-gradient-3" cx="-7791.54476" cy="8814.97315" r="215.72899" gradientTransform="matrix(1, 0, 0, -1, 7978.7002, 8780.10359)" gradientUnits="userSpaceOnUse"><stop offset="0.132" stop-color="#fff44f"/><stop offset="0.252" stop-color="#ffdc3e"/><stop offset="0.506" stop-color="#ff9d12"/><stop offset="0.526" stop-color="#ff980e"/></radialGradient><radialGradient id="radial-gradient-4" cx="-8282.84848" cy="-6930.94549" r="166.14189" gradientTransform="translate(10368.05145 8617.59781) scale(1.23)" gradientUnits="userSpaceOnUse"><stop offset="0" stop-color="#00ccda"/><stop offset="0.22" stop-color="#0083ff"/><stop offset="0.26" stop-color="#007af9"/><stop offset="0.33" stop-color="#0060e8"/><stop offset="0.33" stop-color="#005fe7"/><stop offset="0.44" stop-color="#2639ad"/><stop offset="0.52" stop-color="#401e84"/><stop offset="0.57" stop-color="#4a1475"/></radialGradient><radialGradient id="radial-gradient-5" cx="-7831.20684" cy="8759.57706" r="102.00362" gradientTransform="matrix(1, 0, 0, -1, 7978.7002, 8780.10359)" gradientUnits="userSpaceOnUse"><stop offset="0" stop-color="#ffe226"/><stop offset="0.121" stop-color="#ffdb27"/><stop offset="0.295" stop-color="#ffc82a"/><stop offset="0.502" stop-color="#ffa930"/><stop offset="0.732" stop-color="#ff7e37"/><stop offset="0.792" stop-color="#ff7139"/></radialGradient><radialGradient id="radial-gradient-6" cx="-7761.71422" cy="8706.28686" r="298.25322" gradientTransform="matrix(1, 0, 0, -1.00886, 7978.7002, 8856.86493)" gradientUnits="userSpaceOnUse"><stop offset="0.094" stop-color="#fff44f"/><stop offset="0.231" stop-color="#ffe141"/><stop offset="0.509" stop-color="#ffaf1e"/><stop offset="0.626" stop-color="#ff980e"/></radialGradient><radialGradient id="radial-gradient-7" cx="-8576.87521" cy="12491.13122" r="318.80369" gradientTransform="matrix(0.105, 0.995, 0.653, -0.069, -7065.14776, 9375.90273)" gradientUnits="userSpaceOnUse"><stop offset="0" stop-color="#fff44f"/><stop offset="0.06" stop-color="#ffe847"/><stop offset="0.168" stop-color="#ffc830"/><stop offset="0.304" stop-color="#ff980e"/><stop offset="0.356" stop-color="#ff8b16"/><stop offset="0.455" stop-color="#ff672a"/><stop offset="0.57" stop-color="#ff3647"/><stop offset="0.737" stop-color="#e31587"/></radialGradient><radialGradient id="radial-gradient-8" cx="-7834.59925" cy="8721.7957" r="271.70497" gradientTransform="matrix(1.01022, 0, 0, -1.00478, 8058.95091, 8821.55367)" gradientUnits="userSpaceOnUse"><stop offset="0.137" stop-color="#fff44f"/><stop offset="0.48" stop-color="#ff980e"/><stop offset="0.592" stop-color="#ff5634"/><stop offset="0.655" stop-color="#ff3647"/><stop offset="0.904" stop-color="#e31587"/></radialGradient><radialGradient id="radial-gradient-9" cx="217.27575" cy="-48.06067" r="455.92462" gradientUnits="userSpaceOnUse"><stop offset="0.113" stop-color="#fff44f"/><stop offset="0.456" stop-color="#ff980e"/><stop offset="0.622" stop-color="#ff5634"/><stop offset="0.716" stop-color="#ff3647"/><stop offset="0.904" stop-color="#e31587"/></radialGradient><linearGradient id="linear-gradient-2" x1="264.45907" y1="211.68185" x2="62.68535" y2="9.91178" gradientTransform="matrix(1, 0, 0, -1, 3.7, 256.10341)" gradientUnits="userSpaceOnUse"><stop offset="0.167" stop-color="#fff44f" stop-opacity="0.8"/><stop offset="0.266" stop-color="#fff44f" stop-opacity="0.634"/><stop offset="0.489" stop-color="#fff44f" stop-opacity="0.217"/><stop offset="0.6" stop-color="#fff44f" stop-opacity="0"/></linearGradient></defs><title>Firefox_logo,_2019</title><path id="path980" class="cls-1" d="M289.93117,98.87421c-6.2066-14.9342-18.79672-31.05885-28.65581-36.15608a148.40594,148.40594,0,0,1,14.46613,43.3578l.02581.23957c-16.15043-40.26556-43.5384-56.50078-65.90651-91.85339-1.13149-1.78753-2.263-3.57875-3.365-5.46948-.63025-1.07989-1.13517-2.05289-1.57376-2.9485A25.99425,25.99425,0,0,1,202.79176.38668a.36859.36859,0,0,0-.32434-.36857.50866.50866,0,0,0-.26906,0c-.01843,0-.04792.03317-.07.04055s-.07.04054-.1032.05528l.05528-.09583C166.20076,21.02623,154.02712,59.917,152.90668,79.36982a71.45332,71.45332,0,0,0-39.311,15.15165,42.70451,42.70451,0,0,0-3.68564-2.79371,66.22344,66.22344,0,0,1-.40173-34.914A105.79638,105.79638,0,0,0,75.12505,83.38717h-.06634C69.39758,76.21124,69.79563,52.54947,70.12,47.607a25.53454,25.53454,0,0,0-4.76921,2.532A104.02721,104.02721,0,0,0,51.38957,62.09894,124.7403,124.7403,0,0,0,38.03651,78.1204v-.00369a120.64189,120.64189,0,0,0-19.16529,43.28041l-.19166.94352c-.269,1.2568-1.23837,7.55187-1.40422,8.91923a3.01017,3.01017,0,0,1-.03318.31328,136.13617,136.13617,0,0,0-2.31827,19.69235v.73713a142.8515,142.8515,0,0,0,283.62432,24.15565c.23957-1.84282.43489-3.6672.64868-5.52845A146.8978,146.8978,0,0,0,289.93117,98.87421ZM125.29389,210.689c.6671.32065,1.29367.66709,1.97918.973l.09952.06265Q126.33323,211.22709,125.29389,210.689ZM275.77835,106.34868v-.13637l.02582.15111Z" transform="translate(-14.92389 0)"/><path id="path982" class="cls-2" d="M289.93117,98.87421c-6.2066-14.9342-18.79672-31.05885-28.65581-36.15608a148.40594,148.40594,0,0,1,14.46613,43.3578v.13637l.02581.15111a129.36577,129.36577,0,0,1-4.44488,96.40882C254.95083,237.9,215.32289,273.905,153.29367,272.15432c-67.02326-1.8981-126.0487-51.632-137.08348-116.77195-2.00867-10.27186,0-15.47967,1.00986-23.82763a106.42652,106.42652,0,0,0-2.29616,19.71076v.73713a142.8515,142.8515,0,0,0,283.62432,24.15565c.23957-1.84282.43489-3.6672.64868-5.52845A146.8978,146.8978,0,0,0,289.93117,98.87421Z" transform="translate(-14.92389 0)"/><path id="path984" class="cls-3" d="M289.93117,98.87421c-6.2066-14.9342-18.79672-31.05885-28.65581-36.15608a148.40594,148.40594,0,0,1,14.46613,43.3578v.13637l.02581.15111a129.36577,129.36577,0,0,1-4.44488,96.40882C254.95083,237.9,215.32289,273.905,153.29367,272.15432c-67.02326-1.8981-126.0487-51.632-137.08348-116.77195-2.00867-10.27186,0-15.47967,1.00986-23.82763a106.42652,106.42652,0,0,0-2.29616,19.71076v.73713a142.8515,142.8515,0,0,0,283.62432,24.15565c.23957-1.84282.43489-3.6672.64868-5.52845A146.8978,146.8978,0,0,0,289.93117,98.87421Z" transform="translate(-14.92389 0)"/><path id="path986" class="cls-4" d="M220.516,115.666c.30959.21746.59707.43491.88824.65236a77.76639,77.76639,0,0,0-13.26827-17.30405C163.73875,54.60973,196.50035,2.73443,202.02512.0992l.05528-.08108c-35.87965,21.00811-48.05331,59.89893-49.17373,79.35171,1.6659-.11426,3.31708-.25431,5.01983-.25431A72.09105,72.09105,0,0,1,220.516,115.666Z" transform="translate(-14.92389 0)"/><path id="_Path_" data-name=" Path " class="cls-5" d="M149.23039,264.9846c51.49531,0,93.20979-41.94126,93.20979-93.65076s-41.71449-93.65075-93.1594-93.65075-93.1594,41.92866-93.1594,93.64445C56.02269,223.09373,97.78547,264.9846,149.23039,264.9846Z" transform="translate(-14.92389 0)"/><path id="path992" class="cls-6" d="M106.93575,89.77068c1.15729.73713,2.11187,1.37843,2.94851,1.95708a66.22333,66.22333,0,0,1-.40173-34.914A105.79638,105.79638,0,0,0,75.09924,83.38717C75.79582,83.36875,96.51647,82.99649,106.93575,89.77068Z" transform="translate(-14.92389 0)"/><path id="path1000" class="cls-7" d="M93.43765,165.20539s6.613-24.86273,47.35176-24.86273c4.4025,0,17.00375-12.39967,17.22924-15.99465a70.76443,70.76443,0,0,1-53.791-2.13311,53.623,53.623,0,0,0-52.671,2.13311A36.76662,36.76662,0,0,0,85.494,145.88429c-2.65407,23.6321,9.7291,51.1836,39.70376,65.63435.66906.32444,1.29747.675,1.985.98451C109.68733,203.3852,95.24154,186.14127,93.43765,165.20539Z" transform="translate(-14.92389 0)"/><path id="path996" class="cls-8" d="M208.14327,99.01426a77.76671,77.76671,0,0,1,13.26828,17.32248c.785.59338,1.51847,1.18308,2.14136,1.75437,32.38566,29.85363,15.417,72.05415,14.15283,75.05793,26.30806-21.67522,43.12191-53.72917,38.06893-86.81512-16.15783-40.284-43.54577-56.5192-65.9139-91.87181-1.13148-1.78753-2.263-3.57875-3.365-5.46948-.63025-1.07989-1.13517-2.05289-1.57376-2.9485a25.99479,25.99479,0,0,1-2.1303-5.65745.36858.36858,0,0,0-.32434-.36857.50866.50866,0,0,0-.26906,0c-.01843,0-.04791.03317-.07.04055s-.07.04054-.10319.05528C196.50035,2.73443,163.73875,54.60973,208.14327,99.01426Z" transform="translate(-14.92389 0)"/><path id="path998" class="cls-9" d="M223.5148,118.12611c-.62923-.574-1.37017-1.16652-2.16324-1.76274-.29414-.21849-.58457-.437-.89732-.65548a50.02675,50.02675,0,0,0-34.7943-8.40267c51.90288,25.81164,37.97772,114.697-33.95282,111.34187a64.47782,64.47782,0,0,1-18.77663-3.60326q-2.11857-.78881-4.23712-1.72571c-.81541-.37032-1.63081-.74065-2.435-1.15542l.10053.063c10.03058,6.81028,59.57289,23.449,111.37153-18.51624l.08192-.18516C239.1043,190.52462,256.24642,148.11131,223.5148,118.12611Z" transform="translate(-14.92389 0)"/><path class="cls-10" d="M275.83122,106.50413c4.982,33.02426-11.8267,65.00407-38.08864,86.6412l-.081.18424c-41.25014,33.595-81.05517,29.42951-100.20949,22.99989a53.92653,53.92653,0,0,0,14.11739-10.04438c10.4862-10.83083,16.528-18.28938,23.40144-18.42435,6.77964-.11158,9.80932-7.32875,3.50028-11.66923-6.21929-4.363-20.15582-8.94751-35.99095-1.12814-12.12026,5.95991-18.6511,17.88491-37.92173,15.61041-5.49695-.25285-10.17238-6.88695-10.9316-8.656l.02542.17007A59.69773,59.69773,0,0,1,85.75065,145.855,36.68283,36.68283,0,0,1,51.913,124.57035a53.87632,53.87632,0,0,1,52.51646-2.108,71.1331,71.1331,0,0,0,53.63336,2.108c-.05511-1.161-24.9147-11.0569-34.60794-20.60257-5.17842-5.10464-7.63671-7.56293-9.81493-9.40957a42.73111,42.73111,0,0,0-3.68564-2.79369c-.84762-.57858-1.80232-1.20508-2.94846-1.9571-10.41938-6.774-31.14-6.40194-31.82549-6.3835H75.114C69.45279,76.24814,69.851,52.5862,70.17534,47.644a25.53973,25.53973,0,0,0-4.76924,2.53185A104.044,104.044,0,0,0,51.44483,62.1357,124.73223,124.73223,0,0,0,38.03649,78.12042V78.1166a120.645,120.645,0,0,0-19.16535,43.28056c-.07.29109-5.14513,22.47868-2.64252,33.98526C27.25223,220.52214,86.28874,270.25616,153.312,272.15432c62.02929,1.75441,101.65729-34.25431,118.02893-69.38211A129.36365,129.36365,0,0,0,275.83122,106.50413Z" transform="translate(-14.92389 0)"/><path id="path1002" class="cls-11" d="M289.93117,98.87421c-6.2066-14.9342-18.79672-31.05885-28.65581-36.15608a148.40594,148.40594,0,0,1,14.46613,43.3578l.02581.23957c-16.15043-40.26556-43.5384-56.50078-65.90651-91.85339-1.13149-1.78753-2.263-3.57875-3.365-5.46948-.63025-1.07989-1.13517-2.05289-1.57376-2.9485A25.99425,25.99425,0,0,1,202.79176.38668a.36859.36859,0,0,0-.32434-.36857.50866.50866,0,0,0-.26906,0c-.01843,0-.04792.03317-.07.04055s-.07.04054-.1032.05528l.05528-.09583c-35.87965,21.00812-47.93806,58.28664-49.0585,77.73941,1.66591-.11425,3.2229.29369,4.92565.29369,26.03111,2.71684,50.79858,15.16375,63.24549,37.97256a51.33348,51.33348,0,0,0-35.11934-8.72052c51.37775,25.68887,37.59347,114.15147-33.6093,110.81229a63.5221,63.5221,0,0,1-18.58665-3.58612q-2.09714-.78505-4.19425-1.71751c-.80717-.36856-1.61431-.73713-2.41041-1.14992l.09952.06265q-1.03935-.49755-2.0787-1.03565c.6671.32065,1.29367.66709,1.97918.973-17.4441-9.01506-31.84756-26.05743-33.64615-46.74858,0,0,6.5936-24.57212,47.213-24.57212,4.38959,0,16.95391-12.25474,17.17874-15.80769-.05528-1.161-24.91489-11.0569-34.6081-20.6027-5.17831-5.1046-7.63663-7.56292-9.81485-9.40942a42.70437,42.70437,0,0,0-3.68563-2.79371,66.2233,66.2233,0,0,1-.40173-34.914A105.79611,105.79611,0,0,0,75.12506,83.38719h-.06634C69.39759,76.21125,69.79564,52.54948,70.12,47.60705a25.534,25.534,0,0,0-4.76921,2.532A104.02729,104.02729,0,0,0,51.38957,62.099a124.74013,124.74013,0,0,0-13.353,16.02145v-.00368a120.64169,120.64169,0,0,0-19.1653,43.2804l-.19165.94353c-.269,1.2568-1.47426,7.64032-1.64748,9.01137h0a166.20012,166.20012,0,0,0-2.1082,19.91347v.73713a142.8515,142.8515,0,0,0,283.62432,24.15565c.23957-1.84282.43489-3.6672.64868-5.52845A146.8978,146.8978,0,0,0,289.93117,98.87421Zm-14.17126,7.33809.02581.15111Z" transform="translate(-14.92389 0)"/></svg>